<svg width="18" height="18" viewBox="0 0 18 18" fill="none" xmlns="http://www.w3.org/2000/svg">
<path d="M14.625 7.77881V14.6255C14.625 15.073 14.4472 15.5023 14.1307 15.8187C13.8143 16.1352 13.385 16.313 12.9375 16.313H5.0625C4.61495 16.313 4.18572 16.1352 3.86926 15.8187C3.55279 15.5023 3.375 15.073 3.375 14.6255V3.37549C3.375 2.92794 3.55279 2.49871 3.86926 2.18225C4.18572 1.86578 4.61495 1.68799 5.0625 1.68799H8.53418C8.83244 1.68803 9.11848 1.80652 9.32941 2.0174L14.2956 6.98357C14.5065 7.1945 14.625 7.48054 14.625 7.77881Z" stroke="black" stroke-width="1.5" stroke-linejoin="round"/>
<path d="M9 1.96948V6.18823C9 6.4866 9.11853 6.77275 9.32951 6.98373C9.54048 7.1947 9.82663 7.31323 10.125 7.31323H14.3437" stroke="black" stroke-width="1.5" stroke-linecap="round" stroke-linejoin="round"/>
</svg>
