<svg width="411" height="379" viewBox="0 0 411 379" fill="none" xmlns="http://www.w3.org/2000/svg">
<path fill-rule="evenodd" clip-rule="evenodd" d="M78.124 323.39C78.1778 301.569 78.5898 279.73 79.3602 257.873C79.8976 241.696 80.5963 225.518 81.94 209.395C82.4774 202.999 83.1224 196.603 84.0898 190.261C84.681 186.338 85.2722 182.038 86.9384 178.383C87.4758 177.201 88.0133 176.395 89.1419 175.803C93.3879 173.546 99.2462 173.224 103.976 172.74C111.708 171.969 119.48 171.682 127.248 171.88C126.818 180.211 126.334 188.541 125.904 196.872C125.582 203.268 125.205 209.717 124.829 216.113C124.614 220.144 124.077 224.336 124.184 228.367C124.238 231.645 128.162 234.816 130.096 237.396C132.515 229.979 134.933 222.562 137.352 215.145C138.642 218.478 139.986 221.756 141.491 224.927C142.411 227.092 143.507 229.177 144.769 231.162C145.951 232.935 146.328 233.204 148.37 232.882C150.842 232.505 152.777 231.753 154.228 233.634C155.518 235.3 156.754 236.966 158.152 238.525C173.792 255.724 197.924 266.419 220.228 271.256C233.396 274.105 246.671 276.416 259.785 279.318C279.886 283.725 300.471 288.132 319.658 295.711C322.702 296.834 325.635 298.237 328.419 299.903C331.429 301.784 333.579 304.686 335.675 307.535C340.78 314.522 346.8 325.916 338.899 333.225C332.88 338.815 323.421 339.352 315.574 339.997C307.458 340.642 299.289 340.965 291.173 341.233C269.03 341.932 246.833 342.093 224.636 342.147C204.373 342.147 184.111 342.04 163.849 341.663C154.658 341.502 145.79 341.717 136.922 339.352C118.702 334.515 100.59 329.517 82.4237 324.518C81.0263 324.196 79.5752 323.82 78.124 323.39" fill="#689FBE"/>
<path fill-rule="evenodd" clip-rule="evenodd" d="M263.064 132.591C262.204 133.451 263.601 134.15 264.192 134.365C264.139 133.505 263.709 133.129 263.064 132.591ZM146.543 298.666C146.22 297.914 145.736 297.269 144.823 297.645C143.318 298.236 146.328 298.666 146.543 298.666ZM275.049 174.137C275.64 174.191 278.166 174.083 277.36 172.686C276.446 171.127 275.264 173.653 275.049 174.137V174.137ZM230.225 160.217C231.515 159.088 232.697 157.368 232.751 155.595C231.515 156.401 230.816 158.927 230.225 160.217ZM261.72 137.59C262.795 137.643 261.828 136.085 261.828 135.816C261.828 135.171 262.473 134.58 262.365 133.827C262.365 133.774 261.236 131.301 260.968 131.194C260.161 130.764 259.678 131.57 258.925 131.785C257.85 132.161 257.313 131.839 256.13 131.946C255.109 132.054 254.249 132.538 253.174 132.538C252.906 132.538 252.637 132 252.368 132C251.885 132.054 251.885 132.645 251.562 132.645C250.433 132.752 250.38 132.269 249.305 131.893C247.531 131.194 246.295 132.806 246.349 134.741C246.402 137.321 249.09 138.342 251.132 138.933C253.766 139.686 255.271 140.169 257.958 139.686C258.71 139.524 259.516 139.793 260.161 139.256C260.968 138.557 260.538 136.998 261.505 136.3C261.52 136.737 261.592 137.171 261.72 137.59V137.59ZM168.578 239.761C168.793 241.427 168.363 242.287 169.976 243.415C170.943 244.06 172.126 244.49 173.147 245.189C174.598 246.156 176.855 246.748 178.145 247.876C178.951 248.575 179.113 250.564 180.295 250.832C181.262 251.047 182.445 249.274 182.767 248.468C183.143 247.608 182.875 246.855 183.036 245.995C183.143 245.404 183.573 245.297 183.52 244.598C183.412 243.845 182.714 243.469 182.445 242.878C182.176 242.34 182.069 241.642 181.854 241.212C181.37 240.244 180.241 238.202 179.22 237.557C178.36 239.761 177.715 237.503 176.533 236.858H175.243C175.028 236.643 174.759 236.428 174.544 236.213C173.883 236.229 173.229 236.357 172.609 236.59C172.345 236.528 172.075 236.492 171.803 236.482C171.427 236.59 171.266 236.805 171.373 237.073C171.534 237.02 170.621 237.557 170.567 237.611C168.793 238.793 167.235 239.277 166.912 241.803C167.45 241.158 168.041 240.459 168.578 239.761ZM182.23 149.575C180.349 144.738 180.94 140.438 181.155 135.386C181.209 134.204 181.477 131.624 180.187 130.871C178.629 129.904 177.339 132.108 176.533 133.021C175.135 134.58 173.201 136.031 172.502 138.127C171.857 139.954 172.502 142.158 172.986 143.932C173.523 145.866 174.168 148.446 175.888 149.521C177.769 150.704 180.349 150.542 182.23 149.575V149.575ZM248.122 252.606C247.854 248.897 242.694 250.187 240.383 251.316C238.663 252.176 237.696 253.466 236.567 255.025C235.331 256.798 234.901 257.282 235.008 259.378C235.116 261.313 235.008 263.194 235.492 265.129C235.607 265.816 235.925 266.452 236.406 266.956C236.406 266.956 237.534 268.085 237.212 267.87C238.663 268.676 240.759 268.837 242.479 268.945C244.898 269.106 245.489 269.16 246.456 266.849C246.617 267.225 246.832 267.655 246.994 268.031C247.047 267.762 247.746 264.43 247.585 264.43C247.316 264.484 247.047 265.29 246.886 265.451C246.994 263.893 248.069 262.764 248.606 261.367C249.09 260.13 249.305 258.679 249.681 257.389C250.057 256.099 250.433 254.38 250.111 253.036C249.627 251.37 249.466 251.854 248.122 252.606V252.606ZM279.295 170.751C280.155 171.557 279.403 172.847 279.51 173.814C280.639 173.116 280.262 172.739 280.692 171.611C280.961 170.858 281.821 169.461 282.573 170.697C282.896 171.181 281.875 171.88 282.573 172.202C283.003 172.363 284.078 171.02 284.24 170.805C285.6 169.475 286.439 167.701 286.604 165.806C286.666 165.05 286.612 164.289 286.443 163.549C285.852 162.635 284.401 163.173 284.508 161.507C285.1 161.829 285.691 162.098 286.282 162.42C286.443 160.539 284.455 159.464 283.595 157.959C282.627 156.293 281.982 155.057 280.424 153.606C279.725 152.907 278.543 151.564 277.575 151.241C276.823 150.972 276.554 151.349 275.802 151.349C274.243 151.349 271.932 150.972 274.243 152.638C273.73 152.806 273.242 153.041 272.792 153.337C272.523 153.606 272.362 154.305 272.039 154.52C271.287 154.896 270.749 154.143 269.889 155.003C269.03 155.863 269.889 156.454 269.728 156.831C269.137 157.959 268.385 157.368 268.385 159.088C268.438 161.883 270.051 165.215 270.911 167.849C271.448 169.407 271.986 171.772 274.135 171.181C274.028 171.933 273.867 172.632 274.35 173.277C274.78 172.739 274.942 171.611 275.264 170.966C275.694 170.052 276.446 169.139 276.93 168.279C276.876 169.676 276.715 170.052 275.748 171.127C277.038 171.235 278.596 172.202 279.295 170.751V170.751ZM187.228 211.49C188.357 210.63 186.852 209.663 189.163 210.147C189.754 210.254 189.163 210.953 190.023 210.953C190.345 210.953 191.152 210.147 191.42 209.932C191.635 209.77 192.549 208.481 192.71 208.427C192.442 208.588 193.839 207.997 193.409 208.373C194.337 207.557 194.977 206.464 195.236 205.256C196.15 201.977 196.043 198.054 194.108 195.205C193.301 194.023 192.657 192.572 191.474 191.766C189.862 190.691 187.121 190.046 185.347 189.347L185.938 187.896C180.94 190.153 177.5 195.42 177.07 200.795C176.909 202.73 176.372 205.202 177.554 206.868C178.79 208.642 181.854 210.523 183.573 208.534C183.453 209.11 183.559 209.711 183.869 210.211C184.179 210.711 184.67 211.073 185.24 211.222C185.67 211.329 186.1 211.007 186.315 211.06C186.529 211.222 187.013 211.544 187.228 211.49V211.49ZM141.275 99.4838C137.889 99.1075 138.427 105.181 139.072 107.008C139.556 108.459 141.383 110.502 142.35 111.792C143.536 113.274 144.996 114.515 146.65 115.446C147.118 115.696 147.603 115.912 148.101 116.091C148.256 115.928 148.468 115.832 148.692 115.823C148.902 116.183 149.222 116.466 149.606 116.629C150.842 117.005 152.831 116.951 154.067 116.897C156.002 116.79 158.313 115.661 160.248 115.285C161.019 115.192 161.767 114.955 162.451 114.586C162.881 114.371 163.634 112.49 163.741 114.318C164.225 113.995 164.064 113.511 164.44 113.296C164.816 113.081 165.891 112.866 166.321 112.383C167.029 111.434 167.624 110.406 168.095 109.319C168.363 108.728 168.901 107.223 168.847 106.632C168.74 105.342 168.363 105.665 167.235 105.127C166.64 104.775 166.009 104.486 165.354 104.267C165.246 104.267 165.085 104.697 164.924 104.643C164.655 104.59 164.547 104.267 164.386 104.213C163.043 103.783 161.484 102.494 159.818 102.601C159.119 102.655 158.42 103.73 158.044 103.676C157.507 103.568 157.775 102.44 157.345 102.01C156.324 100.935 152.992 101.096 151.702 100.935C148.316 100.397 144.823 99.9675 141.275 99.4838ZM259.087 191.819C259.409 189.293 259.785 186.821 257.044 185.531C256.023 185.047 255.163 185.209 254.088 185.101C252.691 184.94 252.906 184.349 251.885 185.8C251.293 185.047 251.67 184.832 250.756 184.725C250.38 184.671 248.714 185.8 248.284 185.961C246.456 186.713 244.145 186.66 242.802 188.111C241.458 189.562 240.383 190.959 239.845 192.948C239.577 193.969 239.362 194.99 239.039 195.958C238.663 197.033 237.803 197.946 237.534 199.021C236.352 203.321 241.404 207.298 244.898 208.427C245.346 208.328 245.814 208.366 246.241 208.534C246.545 208.724 246.817 208.96 247.047 209.233C248.176 209.555 248.445 209.448 249.574 208.964C251.455 208.104 253.604 207.836 255.056 209.824C255.486 207.513 257.098 208.911 257.85 207.406C258.28 206.599 257.367 204.342 257.904 203.751C258.818 202.73 261.666 204.503 261.559 202.192C261.505 201.332 260.591 201.064 260.215 200.419C259.624 199.236 259.946 197.946 260.806 196.871C260.86 197.033 261.183 198.269 261.559 197.946C262.634 197.086 260.86 195.796 260.484 195.313C259.839 194.56 259.302 193.969 259.409 192.894C259.516 192.249 260.538 191.551 260.484 190.906C260.43 190.529 259.14 191.766 259.087 191.819V191.819ZM209.909 219.015C209.963 220.788 208.834 221.003 208.135 222.24C207.92 222.562 207.92 223.368 207.652 223.852C207.114 224.766 206.738 224.819 206.577 225.679C206.695 225.993 206.784 226.317 206.845 226.647C206.899 227.883 206.039 228.904 206.308 230.248C206.63 232.182 208.082 234.332 209.157 235.945C211.468 239.546 214.746 242.394 219.207 242.663C222.217 242.824 229.204 241.642 229.849 238.525C229.682 238.158 229.538 237.781 229.419 237.396C229.379 237.169 229.415 236.935 229.522 236.731C229.629 236.527 229.801 236.364 230.01 236.267C230.353 236.168 230.654 235.96 230.87 235.676C230.762 235.362 230.598 235.071 230.386 234.816C230.494 234.386 231.192 234.386 231.139 234.117C230.986 233.336 230.788 232.565 230.547 231.806C230.332 230.839 230.225 229.871 230.064 228.904C229.902 228.098 229.419 227.722 229.311 226.969C229.204 226.485 229.741 226.002 229.687 225.464C229.36 225.154 229.088 224.79 228.881 224.389C228.854 223.97 228.967 223.554 229.204 223.207C228.72 219.713 223.722 216.757 220.174 216.65C218.293 216.596 215.015 216.489 213.295 217.456C212.166 218.155 211.414 220.52 209.909 219.015V219.015ZM133.643 342.899C131.171 341.77 128.914 340.588 126.227 340.051C124.292 339.674 122.626 338.546 120.691 338.223C116.391 337.417 111.769 336.718 107.63 335.213C103.223 333.601 98.3861 333.01 93.8715 331.666C91.7568 331.012 89.5754 330.598 87.3682 330.43C85.1109 330.323 82.7998 329.033 80.5425 329.248C78.6614 329.409 77.3177 330.86 75.8666 331.881C73.9303 333.195 71.9205 334.398 69.847 335.482C67.6972 336.665 65.2786 337.256 63.1288 338.384C61.3552 339.352 59.5816 340.266 57.7542 341.126C48.0262 345.748 38.5669 350.047 29.8063 356.443C32.6548 357.303 35.8796 356.443 38.6744 356.121C42.7053 355.691 46.6825 355.368 50.6597 354.616C52.9708 354.186 57.4855 352.52 59.7428 353.81C61.6777 354.938 61.5164 357.787 61.8389 359.722C63.6663 359.023 65.4936 358.271 67.3747 357.626C68.8259 357.088 71.1907 355.637 72.6956 355.583C76.834 355.422 76.404 361.28 75.9741 363.914C78.3926 363.108 80.7037 362.516 83.0148 361.495C84.8959 360.689 86.992 360.474 88.8194 359.507C93.334 357.088 98.3861 355.583 103.277 353.863C108.759 351.928 114.241 349.94 119.67 347.898C121.927 347.038 124.13 345.909 126.388 345.21C128.753 344.512 131.279 343.974 133.643 342.899V342.899ZM187.712 121.305C187.389 124.583 187.712 127.862 187.819 131.14C187.927 134.956 187.927 138.772 188.464 142.588C189.378 149.467 190.614 156.347 193.087 162.85C195.344 168.762 199.106 172.954 205.502 174.244C208.259 174.842 211.128 174.649 213.781 173.689C216.433 172.729 218.761 171.04 220.497 168.816C224.313 164.033 225.442 158.013 227.699 152.531C228.774 149.844 229.58 147.103 230.494 144.362C231.031 142.695 233.718 137.966 232.966 136.246C232.214 134.58 227.753 134.042 226.248 133.075C223.829 131.624 221.518 128.668 219.691 126.518C218.455 125.067 217.702 123.992 216.842 126.303C215.821 129.044 216.573 132.215 215.606 134.902C214.692 137.536 212.65 134.956 212.435 133.236C212.059 129.958 212.543 126.249 212.65 122.971C212.919 116.844 213.349 109.749 218.885 105.933C224.152 102.332 229.795 101.257 232.751 95.0228C233.933 92.5505 235.277 89.917 234.578 87.1759C233.662 83.9052 232.549 80.6925 231.246 77.5554C228.881 71.6434 225.173 66.4837 221.948 61.0554C221.518 60.303 221.411 59.3893 220.443 59.1743C219.368 58.9593 216.842 60.7867 215.821 61.0554C212.972 61.8616 210.446 60.1955 207.92 62.0766C205.932 63.5815 204.212 65.785 201.471 65.9463C200.288 66 198.73 64.9789 197.709 65.1938C196.419 65.5163 196.043 67.4512 195.559 68.5261C194.43 70.9984 193.14 74.1157 191.259 76.1043C190.614 76.803 189.486 77.0179 188.948 77.6629C188.303 78.4153 188.679 79.9202 187.766 80.0277C187.228 80.0815 186.798 79.3828 186.368 79.2215C185.623 78.9794 184.84 78.8702 184.057 78.8991C182.537 78.923 181.044 79.3099 179.704 80.0277C176.64 81.6938 175.565 84.2199 179.22 85.7248C180.69 86.3564 182.249 86.7554 183.842 86.9072C185.562 87.0684 187.336 86.531 189.056 86.746C192.388 87.1759 193.409 89.917 194.269 92.7655C195.451 96.689 196.419 100.666 197.709 104.536C198.784 107.707 200.772 110.932 201.31 114.21C201.632 116.252 201.202 116.091 199.858 117.327C198.837 118.295 198.192 119.531 197.064 120.498C194.054 123.078 191.313 122.38 187.712 121.305V121.305ZM389.205 311.512C389.098 310.813 374.318 312.156 372.652 311.995C369.803 311.727 366.74 312.479 363.73 312.371C361.096 312.264 357.334 311.243 355.131 312.533C354.324 313.016 354.324 313.554 353.034 313.339C351.806 313.013 350.679 312.385 349.756 311.512C347.284 309.362 345.779 305.976 344.22 303.181C340.995 297.591 338.254 291.84 335.567 285.982C330.085 273.889 324.764 261.743 319.282 249.65C316.541 243.684 313.961 237.665 311.005 231.806C309.769 229.28 308.372 226.539 307.404 223.959C306.329 221.111 304.986 218.424 304.018 215.468C302.03 209.233 299.665 203.16 298.106 196.764C297.73 195.152 297.569 193.432 297.085 191.873C296.601 190.153 295.58 188.702 294.935 187.09C294.29 185.424 294.29 183.919 293.968 182.199C293.645 180.479 292.839 178.813 292.302 177.2C289.399 178.974 286.067 180.533 283.38 182.629C280.746 184.671 276.876 186.391 278.005 190.099C279.026 193.485 280.8 196.603 281.821 199.935C283.003 203.697 284.455 207.406 285.637 211.222C288.109 219.391 290.259 227.614 292.463 235.837C293.484 239.707 294.774 243.577 295.526 247.5C295.903 249.542 295.849 251.37 296.601 253.358C297.354 255.293 297.999 257.174 298.59 259.163C299.665 262.71 300.686 266.204 301.815 269.697C302.46 271.578 302.943 273.513 303.427 275.448C303.696 276.63 304.609 278.888 304.394 280.07C303.642 283.564 299.02 280.016 297.891 278.565C295.311 275.233 293.484 271.202 291.549 267.494C283.81 252.606 280.047 236.59 276.07 220.358C275.049 216.112 274.028 211.867 272.845 207.674C271.609 203.267 271.233 198.645 269.782 194.238C268.277 189.723 266.772 185.316 265.644 180.64C265.16 178.49 264.569 176.34 264.139 174.137C263.924 172.954 263.87 170.858 262.365 170.59C263.386 177.845 263.709 186.391 266.611 193.217C269.245 199.397 271.341 207.889 268.653 214.446C267.363 217.617 265.375 220.305 263.816 223.314C262.096 226.7 261.021 230.57 259.893 234.117C257.528 241.534 256.829 249.381 255.271 256.959C254.456 260.456 254.419 264.089 255.163 267.601C255.378 268.837 255.002 269.858 256.023 270.665C257.098 271.471 259.57 271.632 260.914 272.116C264.945 273.513 268.385 274.588 272.631 275.018C276.582 275.425 280.476 276.272 284.24 277.544C291.119 279.909 298.267 281.683 305.039 284.047C308.748 285.337 312.295 287.648 315.896 289.314C319.604 291.034 323.528 292.163 327.021 294.313C330.784 296.624 334.492 299.311 338.039 301.945C341.318 304.363 342.93 307.373 344.274 311.082C346.907 318.23 353.464 327.474 347.391 334.676C349.541 335.59 351.96 335.966 354.002 336.987C354.701 337.31 354.916 337.686 355.722 337.847C356.797 338.116 358.14 337.901 359.215 337.955C360.774 338.062 364.052 339.191 365.557 338.707C366.955 338.277 367.008 336.235 368.03 335.213C369.534 333.709 370.986 334.676 372.813 334.515C375.554 334.246 378.295 333.924 380.982 333.655C386.518 333.171 392 333.064 397.536 333.064C394.634 329.839 384.046 335.697 383.777 329.893C383.455 323.174 391.678 325.217 395.655 323.282C392.054 323.389 388.399 323.443 384.798 323.712C382.595 323.873 378.403 324.948 377.166 322.529C375.823 319.95 377.973 316.94 379.961 315.596C382.917 313.984 386.142 312.801 389.205 311.512V311.512ZM87.637 222.132C86.992 223.476 88.0132 224.013 88.4431 225.034C89.0881 226.485 88.4431 226.217 88.3356 227.614C88.2282 228.528 88.4969 228.958 88.4431 229.871C88.4431 230.248 87.9057 230.731 87.8519 231.161C87.7444 231.914 88.1744 232.29 88.1207 232.827C88.1207 233.096 88.4431 233.15 88.3894 233.526C88.3356 233.849 87.5295 234.117 87.4757 234.332C87.207 235.568 87.9594 234.977 88.0669 235.568C88.2819 236.536 87.6907 236.751 87.3682 237.665C86.8308 239.223 87.3682 239.976 87.6907 241.481C87.9594 242.717 87.5295 242.717 87.3682 243.899C87.2607 244.598 87.4757 244.705 87.4757 245.404C87.4757 247.715 86.9383 250.134 86.9383 252.606C86.8845 258.411 86.4008 264.161 86.347 269.966C86.2933 275.663 85.8633 281.414 85.5946 287.218C85.4871 290.013 85.1646 292.862 85.0571 295.656C84.8959 298.935 85.2184 302.16 84.9497 305.438C84.6809 308.394 84.8422 311.35 84.7347 314.306C84.6809 315.704 83.9285 319.95 84.8959 320.917C86.0783 322.153 90.9692 320.863 92.5278 320.917C95.5479 321.15 98.5474 321.599 101.503 322.261C108.383 323.712 115.262 325.539 122.142 326.829C127.893 327.904 133.267 330.645 138.588 333.01C138.104 328.119 137.244 323.336 137.083 318.391C136.922 313.93 137.352 309.523 137.244 305.116C137.029 295.656 136.492 286.305 136.707 276.845C136.912 267.152 137.683 257.479 139.018 247.876C139.609 243.523 140.093 238.847 141.705 234.655C142.404 232.774 143.586 231.376 143.103 229.334C142.565 227.077 141.544 224.766 140.792 222.562C140.254 226.109 138.266 249.704 130.204 242.609C127.033 239.814 125.582 233.849 124.883 229.871C123.915 224.551 124.292 218.961 124.292 213.586C124.345 202.622 125.528 191.443 126.657 180.533C126.871 178.329 128 176.394 125.205 176.502C122.572 176.609 119.885 177.2 117.305 177.523C115.047 177.792 112.79 177.147 110.64 177.415C109.673 177.523 108.759 178.114 107.792 178.275C106.556 178.437 105.212 178.168 103.976 178.168C101.826 178.168 99.3536 178.168 97.58 179.511C95.6438 181.016 94.2176 183.08 93.4953 185.424C92.8503 187.627 93.0653 190.153 92.6353 192.41C92.3128 194.292 92.2054 196.603 91.9366 198.753C90.593 197.086 90.7005 199.505 90.6467 200.204C90.6467 201.064 89.6793 202.837 89.948 203.321C90.1093 203.643 91.1304 203.482 91.2379 203.751C91.3992 204.288 90.808 204.503 90.7542 204.88C90.7005 206.438 90.808 208.051 90.808 209.609C90.4267 209.353 90.0671 209.065 89.733 208.749C89.5653 209.207 89.4217 209.674 89.3031 210.147C89.1956 210.362 88.4431 210.308 88.3894 210.684C88.3356 211.168 89.4106 212.135 89.6256 212.673C90.0018 213.64 90.2168 213.264 89.6256 214.285C88.8731 215.468 87.6907 215.575 87.9057 217.295C88.2724 216.982 88.6139 216.64 88.9269 216.274C89.0881 217.295 88.6581 218.209 88.6044 219.283C88.5506 219.982 89.4106 222.669 88.7656 223.099C88.3894 223.261 87.6907 222.239 87.637 222.132V222.132ZM142.135 136.998C142.135 134.741 138.803 131.194 137.674 129.313C135.903 126.296 133.851 123.453 131.547 120.821C129.236 118.134 126.71 115.554 124.453 112.813C123.539 111.684 122.841 110.34 121.873 109.212C120.691 107.814 120.422 108.244 118.971 108.298C117.842 108.352 117.09 108.137 116.069 108.459C115.531 108.621 115.155 108.889 114.564 109.051C114.187 109.158 113.704 108.782 113.22 108.943C111.984 109.373 111.554 110.448 110.103 110.448C109.942 110.448 109.35 110.018 109.297 110.072C109.189 110.125 108.759 110.448 108.759 110.448C108.652 110.448 108.705 111.147 108.437 111.308C108.007 111.523 107.684 110.824 107.254 110.878C106.233 110.985 105.427 112.06 104.298 112.329C102.847 112.652 101.557 112.168 100.16 112.866C99.0311 113.404 98.4936 114.64 97.5262 113.35C96.6663 115.124 95.1076 114.586 93.549 115.339C91.3992 116.414 89.0343 116.951 86.7233 117.704C81.9936 119.37 77.1565 121.036 72.5343 123.024C62.9138 127.109 53.6158 131.678 44.2102 136.085C35.0197 140.384 26.5278 146.081 18.2509 151.832C14.22 154.627 10.1353 157.637 7.01803 161.453C6.0506 162.635 4.43822 164.463 5.08318 166.075C5.78187 167.795 8.63041 168.87 10.2965 169.246C12.5011 169.629 14.7265 169.881 16.961 169.998C19.3259 170.16 21.8519 170.213 24.163 170.213C28.7314 170.16 33.2461 169.676 37.8682 169.622C43.1353 169.515 48.2412 168.386 53.5083 168.332C59.2591 168.279 64.9562 167.526 70.707 167.741C81.8324 168.171 92.9578 168.494 104.083 168.547C105.481 168.547 106.824 168.386 108.168 168.655C109.297 168.87 110.049 169.246 111.231 169.139C112.36 169.085 113.381 168.601 114.51 168.494C116.015 168.44 117.52 168.655 118.971 168.655C123.969 168.547 129.935 168.117 134.772 169.676C136.707 170.321 139.126 172.148 137.943 174.513C136.761 176.878 133.805 174.943 131.977 176.018C130.257 177.039 131.225 179.726 131.332 181.339C131.548 184.415 131.601 187.501 131.494 190.583C131.332 197.409 130.902 204.181 130.795 211.007C130.741 214.339 130.795 217.617 130.956 220.95C131.117 223.852 131.01 227.023 132.031 229.818C133.428 226.324 133.59 222.508 134.127 218.854C134.718 214.876 135.31 210.899 135.847 206.976C136.17 204.611 136.546 190.476 141.168 192.303C146.059 194.292 144.393 205.148 144.608 209.072C144.767 212.762 145.252 216.431 146.059 220.036C146.435 221.702 147.51 228.85 149.66 229.28C151.218 221.81 152.885 214.393 154.067 206.814C154.604 203.482 155.034 200.15 155.249 196.764C155.357 194.99 155.249 190.798 157.775 190.583C165.192 189.992 160.248 221.326 165.784 225.249C167.826 221.165 168.632 216.919 169.223 212.35C169.492 210.308 170.029 207.943 169.707 205.901C169.277 203.213 168.847 201.547 169.385 198.753C169.868 196.441 170.191 194.13 170.728 191.819C171.104 190.207 172.126 189.401 172.663 187.896C174.168 183.757 174.06 178.49 174.652 174.137C175.243 169.73 175.888 165.376 175.135 160.915C174.383 156.508 171.158 155.111 167.45 153.283C163.741 151.456 160.194 149.414 156.109 148.608C151.541 147.694 147.349 146.834 142.727 146.565C134.503 146.135 126.442 146.619 118.218 147.049C109.082 147.479 99.9985 146.941 90.8617 146.834C86.4545 146.78 81.9399 146.673 77.479 146.78C75.2754 146.834 73.1255 147.21 70.8682 147.156C68.9871 147.103 65.2786 147.694 63.6125 146.673C63.3252 146.489 63.0854 146.24 62.9125 145.946C62.7397 145.652 62.6387 145.321 62.6177 144.981C62.5968 144.64 62.6565 144.3 62.792 143.987C62.9275 143.674 63.135 143.397 63.3975 143.179C64.4725 142.212 66.6223 142.158 68.0197 141.889C72.3731 140.922 76.7265 140.384 81.0799 139.632C83.455 139.202 85.8707 139.04 88.2819 139.148C90.7542 139.256 93.2265 138.557 95.7526 138.45C101.02 138.181 106.341 137.966 111.608 137.858C121.819 137.751 131.924 136.998 142.135 136.998V136.998ZM147.456 236.912C146.65 237.235 146.865 241.158 146.757 241.964C146.543 244.329 146.274 246.64 146.059 249.005C145.575 254.433 145.199 259.862 144.93 265.29C144.608 270.718 144.285 276.2 144.285 281.629C144.285 283.94 144.393 286.251 144.339 288.562C144.285 290.282 143.533 293.56 145.038 294.743C146.005 295.549 147.994 295.173 149.122 295.119C151.433 294.958 153.691 294.797 156.002 294.797C158.635 294.797 161.269 295.065 163.956 295.012C164.977 295.012 166.106 294.797 167.127 295.012C167.88 295.173 168.632 295.764 169.331 295.818C169.815 295.818 170.513 295.334 171.051 295.226C171.963 295.146 172.88 295.146 173.792 295.226C174.437 295.226 175.942 294.958 176.533 295.28C177.07 295.656 176.855 296.463 177.393 296.624C177.608 296.678 178.683 295.388 178.898 295.28C179.758 294.904 180.994 295.173 181.907 295.226C184.487 295.28 187.121 295.065 189.701 295.119C192.182 295.18 194.658 295.378 197.117 295.71C198.73 295.925 200.557 295.441 202.277 295.28C205.018 295.065 207.759 295.119 210.446 295.173C211.844 295.227 213.187 295.227 214.585 295.28C215.013 295.227 215.446 295.227 215.875 295.28C217.111 295.656 216.358 295.656 217.218 296.248C216.036 295.495 219.852 295.012 220.067 295.012C221.787 295.012 223.345 295.818 224.797 295.656C226.355 295.495 227.914 294.528 229.634 294.797C230.44 294.958 231.085 295.818 231.676 295.925C232.644 296.086 232.966 295.388 233.826 295.065C235.546 294.367 237.588 294.958 239.416 294.85C241.995 294.689 244.414 294.689 246.994 294.635C251.67 294.582 256.345 294.474 261.075 294.528C265.375 294.582 268.868 296.301 273.168 296.194C275.425 296.14 277.736 295.925 279.94 295.979C281.875 296.033 282.842 297.484 281.391 299.15C280.424 300.279 278.596 300.44 277.199 300.601C275.157 300.924 273.114 301.354 271.072 301.73C266.181 302.536 261.075 302.536 256.077 302.697C235.868 303.288 215.714 305.116 195.505 305.277C186.637 305.384 177.661 306.083 168.847 305.761C163.902 305.546 159.065 306.621 154.121 305.868C152.037 305.544 149.938 305.329 147.832 305.223C147.564 305.223 145.951 304.901 145.629 305.008C144.715 305.438 145.253 305.062 144.876 306.083C144.231 307.803 144.5 310.544 144.5 312.318C144.5 315.22 144.661 318.122 144.769 321.025C144.876 323.819 145.038 326.56 145.199 329.355C145.253 330.484 144.823 334.837 145.683 335.697C146.381 336.342 149.552 336.02 150.466 335.858C151.198 335.641 151.968 335.586 152.723 335.697C153.366 335.778 154.016 335.778 154.658 335.697C157.159 335.384 159.692 335.42 162.183 335.805C164.064 336.127 165.999 335.267 166.697 337.202C167.88 335.751 167.88 336.557 169.17 336.88C170.513 337.202 170.137 336.288 171.266 336.181C172.072 336.073 172.824 336.718 173.684 336.718C175.135 336.718 176.425 336.342 177.984 336.557C184.81 337.417 191.797 338.17 198.676 338.223C201.525 338.277 204.373 338.277 207.222 338.384C208.673 338.438 210.07 338.599 211.468 338.761C212.811 338.922 213.886 338.599 215.284 338.546C218.401 338.385 221.626 338.868 224.743 339.029C226.194 339.083 228.021 338.868 229.419 339.029C230.816 339.244 230.924 340.266 232.052 340.911C232.214 337.471 239.469 339.674 241.35 339.674C242.103 339.674 243.016 339.352 243.876 339.406C245.328 339.513 246.832 339.513 248.337 339.567C250.628 339.738 252.929 339.72 255.217 339.513C258.119 339.137 261.344 339.513 264.3 339.513C267.525 339.513 270.749 339.459 273.974 339.352C277.253 339.244 280.477 339.029 283.756 338.922C286.604 338.814 289.614 339.083 292.409 338.868C293.108 338.814 293.806 338.277 294.451 338.277C295.365 338.223 296.332 338.599 297.407 338.546C300.686 338.277 303.696 338.223 307.028 338.223C312.776 338.137 318.487 337.287 324.012 335.697C326.538 334.998 329.117 334.945 331.59 334.246C334.438 333.386 337.072 331.881 339.705 330.538C341.748 329.463 344.65 328.979 343.844 326.238C342.93 323.336 341.533 320.487 340.458 317.639C339.544 315.166 338.953 312.694 336.911 310.867C334.922 309.039 332.396 307.749 330.246 306.083C325.624 302.375 320.787 300.117 315.359 297.914C309.823 295.71 304.824 292.432 299.02 290.927C293.645 289.529 288.486 287.702 283.165 286.305C277.414 284.746 271.448 284.209 265.644 282.865C260.054 281.575 254.572 279.64 248.929 278.619C242.802 277.544 236.674 277.007 230.547 275.663C225.388 274.534 220.443 272.384 215.284 271.471C213.723 271.275 212.179 270.97 210.661 270.557C209.264 270.127 208.297 269.213 206.899 268.837C203.797 267.973 200.776 266.84 197.87 265.451C196.58 264.86 195.881 264.161 194.806 263.463C193.463 262.603 191.797 262.334 190.345 261.85C187.497 260.937 184.648 260.077 182.122 258.464C179.516 256.796 177.004 254.983 174.598 253.036C173.577 252.23 172.448 251.424 171.427 250.617C170.137 249.704 168.793 249.489 167.342 248.897C161 246.264 158.205 239.976 154.766 234.547C154.282 239.062 150.036 241.104 147.456 236.912V236.912ZM237.534 159.894C237.964 157.906 238.609 155.111 236.137 155.003C235.48 155.114 234.833 155.275 234.202 155.487C233.342 156.024 233.073 157.798 232.751 158.712C232.482 159.464 232.267 160.485 231.676 161.077C231.085 161.668 230.44 161.668 229.849 162.367C228.075 164.463 226.785 168.064 225.764 170.59C227.215 170.267 226.14 171.181 226.785 171.772C227.753 172.632 227.43 172.471 228.774 172.632C231.139 172.847 232.214 172.256 234.041 170.751C235.6 169.515 236.137 168.709 236.997 166.881C238.233 164.194 237.588 162.581 237.534 159.894L239.469 161.668C239.254 160.862 239.093 160.109 238.878 159.303L237.534 159.894ZM169.6 4.29968C170.836 0 173.201 -0.322476 176.372 2.79479C176.855 1.66612 177.446 0 178.898 0C179.919 0 180.134 0.859935 180.779 1.39739C181.492 2.00402 182.373 2.37896 183.305 2.47231C185.616 2.84854 187.766 2.74104 189.915 3.76222C191.904 4.72964 192.818 6.07329 194.376 7.47069C195.828 8.81434 196.849 7.9544 198.461 8.59935C200.288 9.3518 201.095 11.5554 201.417 13.329C201.847 15.4788 201.417 16.1775 202.922 17.7899C204.326 19.2637 205.164 21.1865 205.287 23.2183C205.48 25.2717 204.989 27.3316 203.889 29.0766C202.653 30.9039 201.31 30.4202 202.976 32.57C203.782 33.645 203.889 36.0098 204.911 36.7085C206.63 37.9446 208.888 35.956 210.393 35.4723C212.489 34.7736 212.005 35.956 212.919 37.2997C214.262 39.342 215.069 37.2459 216.896 37.6222C217.595 37.7834 217.756 38.4821 218.025 38.5896C218.885 38.9121 217.971 38.8046 218.938 38.4284C219.583 38.2134 219.153 36.9772 220.443 37.6759C221.357 38.1596 220.658 39.0196 221.088 39.6645C221.894 40.9007 223.077 40.202 223.668 41.8144C224.386 43.5932 224.961 45.4264 225.388 47.2964C225.764 49.4463 224.85 51.2736 225.012 53.2622C225.173 55.3583 227.215 56.7557 228.505 58.2606C234.847 65.4626 237.534 74.9756 239.631 84.1124C241.565 92.658 238.179 102.279 231.515 108.083C228.129 110.985 223.937 112.275 220.712 115.5C219.261 116.951 219.315 117.381 220.981 118.564C222.378 119.531 223.668 120.767 225.173 121.52C228.891 123.47 232.874 124.864 236.997 125.658C239.147 126.088 241.404 125.927 243.554 125.819C245.811 125.766 248.391 126.034 250.595 125.766C252.53 125.497 254.088 123.938 256.13 124.099C256.937 124.153 257.42 124.476 258.227 124.422C259.302 124.314 260.215 123.777 261.344 123.777C263.064 123.831 264.784 123.831 266.45 123.938C268.331 123.992 270.588 123.508 272.469 123.831C274.243 124.153 276.393 125.766 277.951 126.679C280.02 127.861 282.012 129.172 283.917 130.603C285.53 131.946 286.712 134.096 287.948 135.762C289.292 137.536 290.85 139.095 292.194 140.868C297.515 147.801 303.158 156.293 304.824 165C305.21 167.184 305.246 169.415 304.932 171.611C304.663 173.599 302.782 174.352 302.728 176.448C302.621 180.748 304.663 185.746 305.846 189.831C307.088 194.114 308.688 198.285 310.629 202.3C311.381 203.858 312.349 205.148 312.832 206.761C313.424 208.749 314.284 210.63 314.929 212.619C320.518 229.871 329.225 245.941 335.567 262.925C338.953 272.062 342.554 281.091 346.262 290.121C348.09 294.582 350.078 298.881 352.067 303.235C352.336 303.826 352.497 304.901 352.981 305.331C353.733 305.976 353.088 305.599 354.163 305.492C355.077 305.384 356.044 304.955 357.012 304.793C359.269 304.417 361.58 304.363 363.891 304.148C366.389 303.872 368.904 303.782 371.416 303.88C373.834 303.987 376.253 303.288 378.671 303.127C383.885 302.805 388.99 302.966 394.204 303.073C398.235 303.127 403.448 302.643 407.21 304.525C410.973 306.406 409.683 310.759 406.512 312.425C402.696 314.414 398.181 314.683 394.419 316.725C397.267 317.585 400.331 317.37 403.233 318.069C405.114 318.498 408.017 318.821 409.414 320.218C410.758 321.562 410.65 323.819 409.736 325.378C408.608 327.313 406.458 327.635 404.523 328.334C405.383 329.516 406.78 329.409 407.533 330.914C408.554 332.956 407.909 335.106 406.619 336.88C403.824 340.696 398.342 341.018 394.043 341.556C389.764 342.083 385.446 342.209 381.144 341.932C378.725 341.77 376.36 341.663 373.942 341.287C371.201 340.911 371.469 342.845 370.502 344.78C369.534 346.715 368.191 347.521 366.095 347.414C363.72 347.335 361.351 347.119 359 346.769C356.85 346.393 354.969 345.264 352.873 344.834C351.073 344.403 349.338 343.734 347.714 342.845C345.671 341.824 344.596 340.051 342.823 338.868C340.995 337.632 339.061 339.567 337.287 340.534C332.88 342.899 328.096 343.92 323.313 345.049C318.422 346.231 313.639 347.736 308.694 348.542C306.383 348.919 304.179 348.865 301.868 349.134C299.235 349.402 296.924 350.424 294.183 350.424C284.616 350.424 274.995 352.197 265.375 352.466C255.916 352.788 246.241 351.982 236.782 352.627C231.945 352.95 227.269 352.305 222.432 352.573C217.413 352.77 212.386 352.645 207.383 352.197C197.117 351.391 187.121 351.606 176.963 351.122C171.634 350.883 166.322 350.345 161.054 349.51C155.948 348.704 150.143 349.617 146.489 345.156C146.113 346.93 146.005 348.704 144.715 350.101C143.372 351.552 141.222 352.143 139.394 352.788C134.826 354.455 130.15 356.067 125.528 357.679C121.121 359.184 116.714 360.85 112.306 362.248C107.684 363.699 103.223 365.472 98.6549 367.192C94.5164 368.751 90.2168 369.987 86.2396 371.868C84.5734 372.621 82.8536 372.728 81.2949 373.427C79.417 374.348 77.4775 375.138 75.4904 375.792C73.7168 376.329 72.0506 376.759 70.3308 377.458C68.6109 378.156 66.1923 379.393 64.4187 378.479C63.1825 377.834 62.6451 376.275 62.2689 375.039C61.7852 373.427 62.2151 370.686 60.334 370.74C58.4529 370.793 55.8194 372.621 53.992 373.212C51.7884 373.964 49.5848 375.147 47.3275 375.577C45.0702 376.007 43.2965 375.845 42.1141 373.749C40.7705 371.385 40.9855 368.912 41.4154 366.332C37.5995 366.332 34.0522 366.709 30.1825 366.816C28.0695 366.933 25.9512 366.915 23.8405 366.762C21.9057 366.547 19.0571 367.139 17.391 366.279C14.005 364.505 14.4887 359.453 16.2086 356.712C17.176 355.153 18.6272 354.132 20.132 353.218C21.8978 352.046 23.5529 350.715 25.0767 349.241C24.0017 348.489 22.6044 348.865 21.5294 347.951C20.7479 347.165 20.1592 346.208 19.8096 345.156C19.1109 343.329 20.0245 339.137 18.4122 338.116C17.5522 337.578 16.0474 337.793 15.1337 337.363C14.4891 337.062 13.9104 336.636 13.4308 336.11C12.9512 335.585 12.5801 334.969 12.3389 334.3C11.049 331.29 12.1776 328.173 13.4138 325.378C8.68415 324.572 1.75093 324.249 0.407279 318.767C-0.0685331 316.966 -0.0313018 315.067 0.514771 313.285C1.37471 310.759 3.4708 310.598 5.72813 309.845C15.2412 306.728 24.163 301.622 34.4285 300.87C39.9106 300.44 45.4464 300.279 50.9822 299.687C56.5181 299.096 61.8389 298.129 67.3747 298.774C69.7396 299.042 72.4806 298.827 74.7379 299.257C76.9415 299.687 77.2102 302.267 75.5441 303.718C73.9317 305.169 71.5669 304.256 69.6321 304.417C66.891 304.632 64.5799 305.922 62.0539 306.782C55.647 308.797 49.0588 310.183 42.3829 310.92C38.8894 311.297 35.5571 311.35 32.1174 312.318C29.0001 313.178 25.8829 314.145 22.7656 314.951C26.2053 315.865 32.8161 315.757 33.9448 319.95C34.4822 321.938 33.891 324.626 32.1711 325.862C31.15 326.56 29.0001 326.238 28.3552 327.313C31.0425 327.635 34.106 325.593 35.6109 328.549C37.277 331.935 35.6646 334.622 33.461 337.095C35.3959 336.772 37.3307 337.148 39.2656 336.88C40.7705 336.665 42.1679 336.235 43.5653 336.718C44.264 336.933 44.1565 337.578 45.0702 337.578C45.7151 337.578 46.6825 336.88 47.2737 336.611C49.4236 335.59 51.6272 334.73 53.8308 333.87C56.4166 332.834 59.0753 331.989 61.7852 331.344C65.4936 330.43 69.2558 328.065 72.8568 326.775C74.4155 326.238 76.3503 325.647 77.1565 324.034C77.9627 322.368 77.3177 319.95 77.3177 318.23C77.1565 313.285 77.264 308.394 77.264 303.45C77.264 299.311 77.3715 295.227 77.7477 291.142C78.1777 286.197 77.8014 281.306 77.9627 276.362C78.1239 271.847 77.7477 267.279 77.8552 262.764C78.0164 257.712 78.2314 252.66 78.2852 247.608C78.3926 238.525 78.6614 229.441 78.8764 220.358C79.0167 211.014 80.0789 201.707 82.0474 192.572C82.9274 188.435 84.1315 184.373 85.6483 180.425C86.1321 179.189 86.6695 179.135 85.4871 178.437C84.7884 178.007 83.9285 178.49 83.2298 178.598C81.8425 178.803 80.4387 178.875 79.0376 178.813C70.4876 178.41 61.9197 178.625 53.4008 179.458C49.0474 179.834 44.6402 180.21 40.233 180.371C35.8259 180.533 31.4724 181.231 27.0653 180.909C19.7021 180.371 11.3177 181.231 5.02943 176.502C-1.68881 171.45 -1.04386 162.528 3.25581 156.024C8.0392 148.876 16.0473 144.845 22.7118 139.847C29.2689 134.956 37.0083 131.355 44.1565 127.378C59.4741 118.886 75.9203 111.093 92.4203 105.235C109.189 99.2688 126.012 92.443 144.285 93.6254C153.529 94.2166 163.902 94.5391 172.072 99.4838C176.425 102.117 180.671 104.858 184.38 108.298C186.153 109.91 187.712 111.953 189.593 113.458C191.367 114.855 193.033 113.888 195.075 113.404C193.678 108.836 192.227 104.267 190.829 99.6987C189.81 100.459 188.64 100.991 187.397 101.26C186.155 101.529 184.869 101.528 183.627 101.257C180.564 100.612 180.779 99.2688 181.047 96.6352C181.155 95.3991 181.531 95.614 180.456 94.8616C179.596 94.2166 177.984 94.0017 177.016 93.4642C174.49 92.1206 172.341 90.0782 171.427 87.3372C170.513 84.5961 171.158 82.0163 171.749 79.329C172.448 76.0505 170.674 77.4479 168.632 75.8893C167.718 75.2443 167.396 74.6531 167.557 73.5245C167.665 72.6108 169.438 71.3209 169.385 70.4609C169.277 69.386 168.686 69.4935 167.826 68.8486C166.902 68.1787 166.208 67.2403 165.837 66.1613C164.977 63.7964 166.751 62.3453 167.503 60.1417C167.793 59.1154 168.266 58.1502 168.901 57.2932C170.137 55.7345 170.621 55.7346 172.394 55.7883C173.845 55.7883 173.845 55.6808 174.974 54.3372C175.416 53.823 175.828 53.2847 176.21 52.7248C176.855 51.7573 177.016 51.9186 176.318 51.1661C174.222 48.8551 173.308 52.456 171.481 52.2411C169.331 51.9723 168.955 48.6401 167.665 47.5114C166.751 46.7052 165.676 47.0277 164.655 46.4902C163.419 45.8453 163.15 44.6091 162.344 43.5342C161.054 41.8681 159.119 41.5456 158.259 39.3958C157.832 38.1874 157.614 36.9151 157.614 35.6336C157.406 33.9114 157.009 32.2173 156.432 30.5814C156.15 29.8077 156.047 28.9803 156.131 28.1611C156.215 27.342 156.483 26.5525 156.915 25.8518C157.829 24.1857 157.937 23.5945 157.722 21.7134C157.56 20.2622 157.507 18.9723 158.259 17.6824C158.94 16.5528 159.362 15.2863 159.495 13.9739C159.71 12.5766 160.194 11.5554 161.538 11.0179C162.451 10.6417 163.472 11.0717 164.117 10.158C164.762 9.2443 164.601 7.84691 165.246 6.82574C166.16 4.89088 167.772 4.6759 169.6 4.29968V4.29968Z" fill="black"/>
<path fill-rule="evenodd" clip-rule="evenodd" d="M223.238 75.997C222.593 74.4921 220.497 67.6664 223.991 67.6664C226.732 67.6126 225.872 73.5784 225.925 75.0296C225.979 77.7706 228.828 78.1468 229.903 80.6191C231.139 83.5214 230.279 86.9074 228.344 89.2723C226.839 91.0459 224.044 93.0882 222.002 90.9384C219.745 88.5198 221.894 87.1224 223.507 85.6175C225.818 83.4139 221.411 82.769 220.282 80.9954C218.24 77.9319 220.39 76.3195 223.238 75.997Z" fill="black"/>
<path fill-rule="evenodd" clip-rule="evenodd" d="M213.295 77.5552C212.972 78.9526 213.08 82.1774 211.575 82.9298C208.995 84.2197 208.404 78.0927 208.457 76.749C208.457 75.2979 208.995 71.9119 211.091 72.3419C213.402 72.8256 212.058 77.2328 213.295 77.5552Z" fill="black"/>
<path fill-rule="evenodd" clip-rule="evenodd" d="M222.861 95.3452C226.623 95.4527 226.408 99.9674 222.807 100.129C219.421 100.29 219.529 95.2377 222.861 95.3452Z" fill="black"/>
<path fill-rule="evenodd" clip-rule="evenodd" d="M230.924 162.636C230.571 164.158 229.72 165.52 228.506 166.505C228.775 165.914 230.064 162.367 230.924 162.636Z" fill="black"/>
</svg>
